<svg width="60" height="60" viewBox="0 0 60 60" fill="none" xmlns="http://www.w3.org/2000/svg">
<path d="M48.9277 50.9941L29.9717 56.25L11.0664 51.002L6.85449 3.75H53.1445L48.9277 50.9941ZM15.5029 13.0029L15.6416 14.5576L15.9053 17.4961L16.0215 18.7988H38.1973L37.6689 24.7334H23.1094L23.248 26.2871L23.5107 29.2256L23.627 30.5283H37.1533L36.4785 38.0439L30.0146 39.7871V39.7891L30.0098 39.791L23.5557 38.0479L23.1436 33.4258H17.3252L18.1367 42.5254L30.0078 45.8213L30.0352 45.8135V45.8115L41.8945 42.5254L41.9834 41.5459L42.9688 30.5283L44.3926 14.5576L44.5312 13.0029H15.5029Z" fill="white"/>
</svg>
